<svg version="1.1" id="Layer_1" xmlns="http://www.w3.org/2000/svg" xmlns:xlink="http://www.w3.org/1999/xlink" x="0px" y="0px"
	 width="100%" viewBox="0 0 500 500" enable-background="new 0 0 500 500" xml:space="preserve">
<path fill="#FFFFFF" opacity="1.000000" stroke="none" 
	d="
M459.000000,501.000000 
	C306.000031,501.000000 153.500076,501.000000 1.000082,501.000000 
	C1.000055,334.333405 1.000055,167.666824 1.000027,1.000171 
	C167.666550,1.000114 334.333099,1.000114 500.999756,1.000057 
	C500.999817,167.666519 500.999817,334.333038 500.999908,500.999756 
	C487.166656,501.000000 473.333344,501.000000 459.000000,501.000000 
M240.494858,264.018341 
	C240.494858,264.018341 240.889938,264.034576 241.443985,264.430389 
	C245.491180,270.429413 251.673004,270.461517 257.898376,270.056366 
	C258.414154,277.942902 260.545868,280.005341 267.973053,280.005890 
	C311.095612,280.009064 354.218292,279.952026 397.340637,280.050629 
	C406.740204,280.072144 413.737091,275.964325 418.507416,268.274811 
	C425.245026,257.414154 431.310150,246.134567 438.105835,235.312317 
	C442.548950,228.236603 437.782349,221.675461 429.994171,221.762634 
	C387.043488,222.243378 344.084259,222.082306 301.128784,221.925003 
	C291.288971,221.888977 284.258270,226.173721 279.206482,234.174683 
	C275.751373,239.646790 272.604126,245.312881 269.293518,250.876938 
	C268.583069,252.070999 267.761871,253.199142 266.747223,254.725372 
	C264.237366,246.429138 260.587311,243.294159 253.770172,243.151642 
	C248.611450,243.043777 244.490280,245.185425 240.625290,249.028580 
	C240.427643,249.018707 240.229980,249.008850 239.759003,248.372086 
	C236.599854,244.429642 232.203033,242.311615 227.525482,243.389908 
	C223.373306,244.347076 219.640625,247.123886 215.847321,248.263016 
	C215.847321,246.625122 215.847321,244.987244 215.847321,242.310471 
	C212.534500,243.884415 209.942902,245.115707 207.459091,246.295792 
	C206.051910,241.039169 202.022644,244.340805 198.917480,243.581955 
	C198.917480,252.607346 198.917480,261.183716 198.917480,269.729614 
	C201.727341,269.729614 204.306534,269.729614 207.100693,269.729614 
	C207.100693,266.309509 207.094955,263.170593 207.101883,260.031677 
	C207.117111,253.126968 208.268127,251.763672 215.468628,251.342209 
	C215.253494,253.476974 214.818558,255.616516 214.864990,257.745575 
	C214.996902,263.793701 218.650558,268.406281 224.185287,269.825836 
	C230.953415,271.561798 236.821259,269.404785 240.494858,264.018341 
M114.884987,250.341080 
	C114.560043,249.763367 114.286858,249.148422 113.902145,248.613724 
	C110.121490,243.359253 102.931015,241.632462 96.545929,244.425751 
	C90.892059,246.899155 87.895233,253.099823 89.136208,259.757019 
	C90.277000,265.876770 95.142838,269.797028 101.885254,270.177795 
	C106.571373,270.442535 110.756668,269.396484 114.589882,266.283051 
	C114.981575,266.539764 115.373268,266.796509 116.457542,267.341553 
	C125.616829,272.234467 130.998825,271.424469 139.395004,263.889374 
	C146.475449,270.529816 154.475677,272.113953 160.949326,268.157410 
	C166.145874,264.981415 168.402679,258.580566 166.486115,252.453674 
	C164.622391,246.495667 159.084747,242.907364 152.131561,243.152161 
	C143.841003,243.444031 139.728012,247.558838 137.684769,257.420532 
	C133.230209,255.324356 128.764465,253.222900 124.298737,251.121460 
	C124.493256,250.548569 124.687767,249.975677 124.882278,249.402786 
	C126.577240,249.402786 128.316177,249.163849 129.955566,249.465714 
	C131.833893,249.811569 133.623825,250.637466 135.554062,251.289230 
	C136.529114,249.421921 137.333725,247.880997 138.123032,246.369400 
	C129.064560,241.060532 121.284943,242.125275 116.396255,249.308136 
	C116.001671,249.859055 115.607094,250.409973 114.884987,250.341080 
M87.303032,267.165466 
	C85.566360,264.369995 83.829689,261.574493 82.116241,258.816406 
	C87.374374,254.511169 89.073212,250.359360 87.869728,244.751266 
	C86.952011,240.474808 84.295197,237.146622 80.089111,236.610199 
	C72.976845,235.703079 65.746231,235.723862 58.596382,235.356110 
	C58.596382,247.515762 58.596382,258.596039 58.596382,269.716125 
	C61.555805,269.716125 64.265610,269.716125 67.376503,269.716125 
	C67.376503,266.495514 67.376503,263.576569 67.376503,260.730988 
	C73.729965,259.916870 73.729965,259.916870 77.470787,266.796356 
	C79.029602,269.663055 85.995804,271.439911 88.366074,269.493195 
	C88.527138,269.360901 87.974792,268.359985 87.303032,267.165466 
M176.728653,252.488953 
	C176.728653,249.574463 176.728653,246.659958 176.728653,243.765625 
	C173.406281,243.765625 170.826508,243.765625 168.068878,243.765625 
	C168.068878,249.733734 167.840881,255.387039 168.128845,261.013916 
	C168.459625,267.477448 172.821136,271.047424 179.173615,270.091583 
	C181.489471,269.743103 183.651642,268.373260 185.531891,267.611969 
	C187.746536,272.080414 191.488647,269.285370 194.486664,269.850647 
	C194.486664,260.870239 194.486664,252.335861 194.486664,243.746460 
	C191.551834,243.746460 188.972305,243.746460 186.024551,243.746460 
	C186.024551,248.514877 186.141144,252.982391 185.985718,257.440430 
	C185.872101,260.699554 183.964844,263.255371 180.736267,262.577789 
	C179.115707,262.237671 177.819916,259.346558 176.835709,257.379700 
	C176.302673,256.314484 176.732925,254.767212 176.728653,252.488953 
z"/>
<path fill="#030303" opacity="1.000000" stroke="none" 
	d="
M241.215836,249.089584 
	C244.490280,245.185425 248.611450,243.043777 253.770172,243.151642 
	C260.587311,243.294159 264.237366,246.429138 266.747223,254.725372 
	C267.761871,253.199142 268.583069,252.070999 269.293518,250.876938 
	C272.604126,245.312881 275.751373,239.646790 279.206482,234.174683 
	C284.258270,226.173721 291.288971,221.888977 301.128784,221.925003 
	C344.084259,222.082306 387.043488,222.243378 429.994171,221.762634 
	C437.782349,221.675461 442.548950,228.236603 438.105835,235.312317 
	C431.310150,246.134567 425.245026,257.414154 418.507416,268.274811 
	C413.737091,275.964325 406.740204,280.072144 397.340637,280.050629 
	C354.218292,279.952026 311.095612,280.009064 267.973053,280.005890 
	C260.545868,280.005341 258.414154,277.942902 257.898376,270.056366 
	C251.673004,270.461517 245.491180,270.429413 241.152115,263.809967 
	C240.591248,258.777130 240.322250,254.364746 240.008743,249.961548 
	C239.964218,249.970734 239.968155,250.061584 240.296204,250.216187 
	C240.821442,249.943710 241.018646,249.516647 241.215836,249.089584 
M354.255829,266.178040 
	C360.571838,262.962280 363.197296,258.552765 362.513794,252.308609 
	C361.871399,246.440079 358.519958,242.442047 352.946472,240.895508 
	C345.100891,238.718521 339.630402,240.940598 333.931458,248.619339 
	C324.760132,236.861572 312.738342,237.156052 305.354797,249.319321 
	C301.052795,240.024078 294.932861,237.889297 286.363434,241.296661 
	C283.318451,240.968918 280.273438,240.641174 277.310944,240.322311 
	C277.310944,252.947083 277.310944,264.670197 277.310944,276.287628 
	C280.121246,276.287628 282.542480,276.287628 285.494934,276.287628 
	C285.494934,272.309387 285.494934,268.602386 285.494934,264.664948 
	C295.405640,269.371246 301.059052,267.454834 305.533783,258.109070 
	C308.301788,264.355469 313.043091,267.194214 319.728699,267.230591 
	C326.343658,267.266632 330.870544,264.143280 333.821045,258.239777 
	C339.166107,266.579803 343.587524,268.366211 354.255829,266.178040 
M373.021759,231.537766 
	C370.432495,231.121613 367.843231,230.705460 364.969696,230.243637 
	C364.969696,242.921783 364.969696,254.786591 364.969696,266.697388 
	C367.776215,266.697388 370.327087,266.697388 373.071136,266.697388 
	C373.071136,255.114609 373.071136,243.827682 373.021759,231.537766 
M257.700623,263.171936 
	C259.844391,262.243439 261.988159,261.314911 264.131927,260.386414 
	C263.934814,260.002411 263.737671,259.618378 263.540558,259.234375 
	C258.505768,259.234375 253.470963,259.234375 247.943542,259.234375 
	C249.970963,263.564240 252.874908,264.751556 257.700623,263.171936 
M248.466995,254.403015 
	C251.670486,254.403015 254.873962,254.403015 258.077454,254.403015 
	C258.362762,253.935608 258.648071,253.468201 258.933380,253.000809 
	C257.279266,251.679947 255.788849,249.612183 253.934280,249.205673 
	C250.811676,248.521210 248.762329,250.543442 248.466995,254.403015 
z"/>
<path fill="#080808" opacity="1.000000" stroke="none" 
	d="
M116.819298,249.015228 
	C121.284943,242.125275 129.064560,241.060532 138.123032,246.369400 
	C137.333725,247.880997 136.529114,249.421921 135.554062,251.289230 
	C133.623825,250.637466 131.833893,249.811569 129.955566,249.465714 
	C128.316177,249.163849 126.577240,249.402786 124.882278,249.402786 
	C124.687767,249.975677 124.493256,250.548569 124.298737,251.121460 
	C128.764465,253.222900 133.230209,255.324356 137.684769,257.420532 
	C139.728012,247.558838 143.841003,243.444031 152.131561,243.152161 
	C159.084747,242.907364 164.622391,246.495667 166.486115,252.453674 
	C168.402679,258.580566 166.145874,264.981415 160.949326,268.157410 
	C154.475677,272.113953 146.475449,270.529816 139.395004,263.889374 
	C130.998825,271.424469 125.616829,272.234467 116.092026,266.760803 
	C116.477715,264.621796 117.228920,263.063538 117.547684,262.402313 
	C122.230202,263.203674 126.018715,263.852051 129.807236,264.500427 
	C130.050110,263.706543 130.292999,262.912659 130.535889,262.118774 
	C128.485794,261.193481 126.490288,260.112274 124.375465,259.371857 
	C117.740662,257.048828 116.745499,255.763931 116.819298,249.015228 
M158.315613,255.110458 
	C157.586075,251.768509 155.480911,249.216629 152.163467,250.248932 
	C150.045822,250.907898 147.700424,253.568298 147.097717,255.778687 
	C145.935272,260.041901 148.680710,263.500000 152.340912,263.721985 
	C156.036438,263.946167 158.040527,261.373932 158.315613,255.110458 
z"/>
<path fill="#090909" opacity="1.000000" stroke="none" 
	d="
M87.528625,267.464233 
	C87.974792,268.359985 88.527138,269.360901 88.366074,269.493195 
	C85.995804,271.439911 79.029602,269.663055 77.470787,266.796356 
	C73.729965,259.916870 73.729965,259.916870 67.376503,260.730988 
	C67.376503,263.576569 67.376503,266.495514 67.376503,269.716125 
	C64.265610,269.716125 61.555805,269.716125 58.596382,269.716125 
	C58.596382,258.596039 58.596382,247.515762 58.596382,235.356110 
	C65.746231,235.723862 72.976845,235.703079 80.089111,236.610199 
	C84.295197,237.146622 86.952011,240.474808 87.869728,244.751266 
	C89.073212,250.359360 87.374374,254.511169 82.116241,258.816406 
	C83.829689,261.574493 85.566360,264.369995 87.528625,267.464233 
M67.687965,253.116226 
	C70.306854,253.134369 73.173485,253.816177 75.466148,252.960373 
	C77.295265,252.277588 79.529953,249.735489 79.553146,247.991714 
	C79.576202,246.258972 77.382751,243.606750 75.584015,242.957794 
	C73.160515,242.083389 70.184357,242.740768 67.162277,242.740768 
	C67.162277,246.134125 67.162277,249.232483 67.687965,253.116226 
z"/>
<path fill="#0E0E0E" opacity="1.000000" stroke="none" 
	d="
M176.728638,252.963165 
	C176.732925,254.767212 176.302673,256.314484 176.835709,257.379700 
	C177.819916,259.346558 179.115707,262.237671 180.736267,262.577789 
	C183.964844,263.255371 185.872101,260.699554 185.985718,257.440430 
	C186.141144,252.982391 186.024551,248.514877 186.024551,243.746460 
	C188.972305,243.746460 191.551834,243.746460 194.486664,243.746460 
	C194.486664,252.335861 194.486664,260.870239 194.486664,269.850647 
	C191.488647,269.285370 187.746536,272.080414 185.531891,267.611969 
	C183.651642,268.373260 181.489471,269.743103 179.173615,270.091583 
	C172.821136,271.047424 168.459625,267.477448 168.128845,261.013916 
	C167.840881,255.387039 168.068878,249.733734 168.068878,243.765625 
	C170.826508,243.765625 173.406281,243.765625 176.728653,243.765625 
	C176.728653,246.659958 176.728653,249.574463 176.728638,252.963165 
z"/>
<path fill="#090909" opacity="1.000000" stroke="none" 
	d="
M114.190536,266.030975 
	C110.756668,269.396484 106.571373,270.442535 101.885254,270.177795 
	C95.142838,269.797028 90.277000,265.876770 89.136208,259.757019 
	C87.895233,253.099823 90.892059,246.899155 96.545929,244.425751 
	C102.931015,241.632462 110.121490,243.359253 113.902145,248.613724 
	C114.286858,249.148422 114.560043,249.763367 115.012688,251.080475 
	C115.440308,254.108841 115.740234,256.397797 116.107056,259.197327 
	C109.738747,259.197327 103.905525,259.197327 97.871284,259.197327 
	C100.715508,264.763824 102.845154,265.146088 110.598640,261.654877 
	C111.747757,263.054871 112.969147,264.542938 114.190536,266.030975 
M103.310913,249.093338 
	C100.069160,249.144363 98.300400,250.756165 97.587173,254.156952 
	C101.295174,254.156952 104.494736,254.156952 107.694298,254.156952 
	C107.918449,253.817902 108.142593,253.478851 108.366745,253.139816 
	C106.935417,251.826218 105.504097,250.512619 103.310913,249.093338 
z"/>
<path fill="#090909" opacity="1.000000" stroke="none" 
	d="
M215.722763,249.097504 
	C219.640625,247.123886 223.373306,244.347076 227.525482,243.389908 
	C232.203033,242.311615 236.599854,244.429642 239.758499,248.943863 
	C239.828033,249.697617 239.898087,249.879593 239.968155,250.061584 
	C239.968155,250.061584 239.964218,249.970734 239.621613,249.913177 
	C237.699860,250.740372 236.120728,251.625092 234.447205,252.562714 
	C231.408615,250.486511 227.682556,248.069748 225.090027,252.109726 
	C223.650558,254.352905 223.418488,258.856995 224.749466,261.080872 
	C227.474716,265.634369 231.508743,263.028107 234.685226,260.819153 
	C236.693954,261.989471 238.397903,262.982239 240.101837,263.975006 
	C236.821259,269.404785 230.953415,271.561798 224.185287,269.825836 
	C218.650558,268.406281 214.996902,263.793701 214.864990,257.745575 
	C214.818558,255.616516 215.253494,253.476974 215.265900,250.727783 
	C215.283035,249.774750 215.502899,249.436127 215.722763,249.097504 
z"/>
<path fill="#080808" opacity="1.000000" stroke="none" 
	d="
M215.785034,248.680267 
	C215.502899,249.436127 215.283035,249.774750 215.079529,250.326904 
	C208.268127,251.763672 207.117111,253.126968 207.101883,260.031677 
	C207.094955,263.170593 207.100693,266.309509 207.100693,269.729614 
	C204.306534,269.729614 201.727341,269.729614 198.917480,269.729614 
	C198.917480,261.183716 198.917480,252.607346 198.917480,243.581955 
	C202.022644,244.340805 206.051910,241.039169 207.459091,246.295792 
	C209.942902,245.115707 212.534500,243.884415 215.847321,242.310471 
	C215.847321,244.987244 215.847321,246.625122 215.785034,248.680267 
z"/>
<path fill="#F8F8F8" opacity="1.000000" stroke="none" 
	d="
M240.298340,263.996674 
	C238.397903,262.982239 236.693954,261.989471 234.685226,260.819153 
	C231.508743,263.028107 227.474716,265.634369 224.749466,261.080872 
	C223.418488,258.856995 223.650558,254.352905 225.090027,252.109726 
	C227.682556,248.069748 231.408615,250.486511 234.447205,252.562714 
	C236.120728,251.625092 237.699860,250.740372 239.666138,249.903992 
	C240.322250,254.364746 240.591248,258.777130 240.875092,263.612061 
	C240.889938,264.034576 240.494858,264.018341 240.298340,263.996674 
z"/>
<path fill="#F1F1F1" opacity="1.000000" stroke="none" 
	d="
M114.390213,266.157013 
	C112.969147,264.542938 111.747757,263.054871 110.598640,261.654877 
	C102.845154,265.146088 100.715508,264.763824 97.871284,259.197327 
	C103.905525,259.197327 109.738747,259.197327 116.107056,259.197327 
	C115.740234,256.397797 115.440308,254.108841 115.176453,251.390381 
	C115.607094,250.409973 116.001671,249.859055 116.607773,249.161682 
	C116.745499,255.763931 117.740662,257.048828 124.375465,259.371857 
	C126.490288,260.112274 128.485794,261.193481 130.535889,262.118774 
	C130.292999,262.912659 130.050110,263.706543 129.807236,264.500427 
	C126.018715,263.852051 122.230202,263.203674 117.547684,262.402313 
	C117.228920,263.063538 116.477715,264.621796 115.745735,266.616638 
	C115.373268,266.796509 114.981575,266.539764 114.390213,266.157013 
z"/>
<path fill="#F8F8F8" opacity="1.000000" stroke="none" 
	d="
M240.296204,250.216187 
	C239.898087,249.879593 239.828033,249.697617 239.895157,249.257309 
	C240.229980,249.008850 240.427643,249.018707 240.920563,249.059082 
	C241.018646,249.516647 240.821442,249.943710 240.296204,250.216187 
z"/>
<path fill="#F8F8F8" opacity="1.000000" stroke="none" 
	d="
M353.877136,266.340912 
	C343.587524,268.366211 339.166107,266.579803 333.821045,258.239777 
	C330.870544,264.143280 326.343658,267.266632 319.728699,267.230591 
	C313.043091,267.194214 308.301788,264.355469 305.533783,258.109070 
	C301.059052,267.454834 295.405640,269.371246 285.494934,264.664948 
	C285.494934,268.602386 285.494934,272.309387 285.494934,276.287628 
	C282.542480,276.287628 280.121246,276.287628 277.310944,276.287628 
	C277.310944,264.670197 277.310944,252.947083 277.310944,240.322311 
	C280.273438,240.641174 283.318451,240.968918 286.363434,241.296661 
	C294.932861,237.889297 301.052795,240.024078 305.354797,249.319321 
	C312.738342,237.156052 324.760132,236.861572 333.931458,248.619339 
	C339.630402,240.940598 345.100891,238.718521 352.946472,240.895508 
	C358.519958,242.442047 361.871399,246.440079 362.513794,252.308609 
	C363.197296,258.552765 360.571838,262.962280 353.877136,266.340912 
M342.237976,252.797867 
	C342.693420,258.477692 345.029877,261.230865 348.917816,260.669128 
	C352.326965,260.176514 354.914948,256.709320 353.820526,252.810150 
	C353.210205,250.635681 351.185394,247.958435 349.190063,247.270157 
	C345.641266,246.046005 343.367828,248.557266 342.237976,252.797867 
M296.677185,256.694183 
	C296.747406,254.895157 297.194580,253.011703 296.814178,251.313629 
	C295.840729,246.968582 290.636322,245.370117 287.485138,248.263733 
	C284.765594,250.760956 284.610077,256.751404 287.513153,259.006836 
	C290.835693,261.588196 293.941528,261.098755 296.677185,256.694183 
M313.854187,254.357376 
	C314.110138,258.493530 316.189056,261.035004 320.444244,260.572968 
	C324.227142,260.162262 325.589447,257.147400 325.516602,253.719711 
	C325.444550,250.330719 324.112396,247.340637 320.236847,247.068008 
	C315.879303,246.761505 314.053406,249.479446 313.854187,254.357376 
z"/>
<path fill="#FFFFFF" opacity="1.000000" stroke="none" 
	d="
M373.046448,232.039276 
	C373.071136,243.827682 373.071136,255.114609 373.071136,266.697388 
	C370.327087,266.697388 367.776215,266.697388 364.969696,266.697388 
	C364.969696,254.786591 364.969696,242.921783 364.969696,230.243637 
	C367.843231,230.705460 370.432495,231.121613 373.046448,232.039276 
z"/>
<path fill="#F1F1F1" opacity="1.000000" stroke="none" 
	d="
M257.317078,263.340027 
	C252.874908,264.751556 249.970963,263.564240 247.943542,259.234375 
	C253.470963,259.234375 258.505768,259.234375 263.540558,259.234375 
	C263.737671,259.618378 263.934814,260.002411 264.131927,260.386414 
	C261.988159,261.314911 259.844391,262.243439 257.317078,263.340027 
z"/>
<path fill="#D7D7D7" opacity="1.000000" stroke="none" 
	d="
M248.263596,254.054108 
	C248.762329,250.543442 250.811676,248.521210 253.934280,249.205673 
	C255.788849,249.612183 257.279266,251.679947 258.933380,253.000809 
	C258.648071,253.468201 258.362762,253.935608 258.077454,254.403015 
	C254.873962,254.403015 251.670486,254.403015 248.263596,254.054108 
z"/>
<path fill="#F8F8F8" opacity="1.000000" stroke="none" 
	d="
M158.398041,255.476181 
	C158.040527,261.373932 156.036438,263.946167 152.340912,263.721985 
	C148.680710,263.500000 145.935272,260.041901 147.097717,255.778687 
	C147.700424,253.568298 150.045822,250.907898 152.163467,250.248932 
	C155.480911,249.216629 157.586075,251.768509 158.398041,255.476181 
z"/>
<path fill="#F1F1F1" opacity="1.000000" stroke="none" 
	d="
M67.425125,252.723541 
	C67.162277,249.232483 67.162277,246.134125 67.162277,242.740768 
	C70.184357,242.740768 73.160515,242.083389 75.584015,242.957794 
	C77.382751,243.606750 79.576202,246.258972 79.553146,247.991714 
	C79.529953,249.735489 77.295265,252.277588 75.466148,252.960373 
	C73.173485,253.816177 70.306854,253.134369 67.425125,252.723541 
z"/>
<path fill="#F1F1F1" opacity="1.000000" stroke="none" 
	d="
M103.691849,249.146179 
	C105.504097,250.512619 106.935417,251.826218 108.366745,253.139816 
	C108.142593,253.478851 107.918449,253.817902 107.694298,254.156952 
	C104.494736,254.156952 101.295174,254.156952 97.587173,254.156952 
	C98.300400,250.756165 100.069160,249.144363 103.691849,249.146179 
z"/>
<path fill="#090909" opacity="1.000000" stroke="none" 
	d="
M342.315613,252.415710 
	C343.367828,248.557266 345.641266,246.046005 349.190063,247.270157 
	C351.185394,247.958435 353.210205,250.635681 353.820526,252.810150 
	C354.914948,256.709320 352.326965,260.176514 348.917816,260.669128 
	C345.029877,261.230865 342.693420,258.477692 342.315613,252.415710 
z"/>
<path fill="#090909" opacity="1.000000" stroke="none" 
	d="
M296.468201,257.029388 
	C293.941528,261.098755 290.835693,261.588196 287.513153,259.006836 
	C284.610077,256.751404 284.765594,250.760956 287.485138,248.263733 
	C290.636322,245.370117 295.840729,246.968582 296.814178,251.313629 
	C297.194580,253.011703 296.747406,254.895157 296.468201,257.029388 
z"/>
<path fill="#090909" opacity="1.000000" stroke="none" 
	d="
M313.851532,253.949921 
	C314.053406,249.479446 315.879303,246.761505 320.236847,247.068008 
	C324.112396,247.340637 325.444550,250.330719 325.516602,253.719711 
	C325.589447,257.147400 324.227142,260.162262 320.444244,260.572968 
	C316.189056,261.035004 314.110138,258.493530 313.851532,253.949921 
z"/>
</svg>